# AST/ASF file generated using VICON BodyLanguage
# -----------------------------------------------
:version 1.10
:name VICON
:units
  mass 1.0
  length 0.45
  angle deg
:documentation
   .ast/.asf automatically generated from VICON data using
   VICON BodyBuilder and BodyLanguage model FoxedUp or BRILLIANT.MOD
:root
   order TX TY TZ RX RY RZ
   axis XYZ
   position 0 0 0  
   orientation 0 0 0 
:bonedata
  begin
     id 1 
     name lhipjoint
     direction 0.682418 -0.694059 0.22932 
     length 2.25561 
     axis 0 0 0  XYZ
  end
  begin
     id 2 
     name lfemur
     direction 0.34202 -0.939693 0  
     length 6.96448  
     axis 0 0 20  XYZ
    dof rx ry rz
    limits (-160.0 20.0)
           (-70.0 70.0)
           (-60.0 70.0)
  end
  begin
     id 3 
     name ltibia
     direction 0.34202 -0.939693 0   
     length 6.88553   
     axis 0 0 20   XYZ
    dof rx
    limits (-10.0 170.0)
  end
  begin
     id 4 
     name lfoot
     direction 0.0723587 -0.198804 0.977364   
     length 1.88518   
     axis -90 7.62852e-016 20   XYZ
    dof rx rz
    limits (-45.0 90.0)
           (-70.0 20.0)
  end
  begin
     id 5 
     name ltoes
     direction 1.53558e-011 -4.21962e-011 1   
     length 0.952124   
     axis -90 7.62852e-016 20   XYZ
    dof rx
    limits (-90.0 20.0)
  end
  begin
     id 6 
     name rhipjoint
     direction -0.657603 -0.71533 0.236348   
     length 2.18854  
     axis 0 0 0  XYZ 
  end
  begin
     id 7 
     name rfemur
     direction -0.34202 -0.939693 0   
     length 6.86686   
     axis 0 0 -20   XYZ
    dof rx ry rz
    limits (-160.0 20.0)
           (-70.0 70.0)
           (-70.0 60.0)
  end
  begin
     id 8 
     name rtibia
     direction -0.34202 -0.939693 0   
     length 6.59503   
     axis 0 0 -20   XYZ
    dof rx
    limits (-10.0 170.0)
 end
 begin
     id 9 
     name rfoot
     direction -0.101977 -0.280179 0.954516   
     length 1.93723  
     axis -90 -7.62852e-016 -20   XYZ
    dof rx rz
    limits (-45.0 90.0)
           (-20.0 70.0)
  end
  begin
     id 10 
     name rtoes
     direction -1.53564e-011 -4.21897e-011 1   
     length 0.970315   
     axis -90 -7.62852e-016 -20   XYZ
    dof rx
    limits (-90.0 20.0)
  end
  begin
     id 11 
     name lowerback
     direction -0.0339559 0.999421 -0.00235966   
     length 1.88543   
     axis 0 0 0   XYZ
    dof rx ry rz
    limits (-20.0 45.0)
           (-30.0 30.0)
           (-30.0 30.0)
  end
  begin
     id 12 
     name upperback
     direction 0.00401003 0.999739 0.0224689   
     length 1.8856   
     axis 0 0 0   XYZ
    dof rx ry rz
    limits (-20.0 45.0)
           (-30.0 30.0)
           (-30.0 30.0)
  end
  begin
     id 13 
     name thorax
     direction 0.0198619 0.999546 0.0226536   
     length 1.88352   
     axis 0 0 0   XYZ
    dof rx ry rz
    limits (-20.0 45.0)
           (-30.0 30.0)
           (-30.0 30.0)
  end
  begin
     id 14 
     name lowerneck
     direction -0.0461848 0.998632 0.0245198   
     length 1.34895   
     axis 0 0 0   XYZ
    dof rx ry rz
    limits (-20.0 45.0)
           (-30.0 30.0)
           (-30.0 30.0)
  end
  begin
     id 15 
     name upperneck
     direction -0.0180627 0.994724 -0.100984   
     length 1.35214   
     axis 0 0 0   XYZ
    dof rx ry rz
    limits (-20.0 45.0)
           (-30.0 30.0)
           (-30.0 30.0)
  end
  begin
     id 16
     name head
     direction -0.00374772 0.999293 -0.037403  
     length 1.3568  
     axis 0 0 0   XYZ
    dof rx ry rz
    limits (-20.0 45.0)
           (-30.0 30.0)
           (-30.0 30.0)
  end
  begin
     id 17 
     name lclavicle
     direction 0.971773 0.191119 0.138311  
     length 2.84954  
     axis 0 0 0   XYZ
    dof ry rz
    limits (-20.0 10.0)
           (0.0 20.0)
  end
  begin
     id 18 
     name lhumerus
     direction 1 -4.4897e-011 -2.43761e-027   
     length 4.40919   
     axis 180 -30 -90   XYZ
    dof rx ry rz
    limits (-60.0 90.0)
           (-90.0 90.0)
           (-90.0 90.0)
  end
  begin
     id 19
     name lradius
     direction 1 -4.4896e-011 -9.1621e-027   
     length 3.03857   
     axis 180 -30 -90   XYZ
    dof rx
    limits (-10.0 170.0)
  end
  begin
     id 20
     name lwrist
     direction 1 -4.4896e-011 -1.41363e-026   
     length 1.51928   
     axis 1.07133e-014 90 90   XYZ
    dof ry
    limits (-180.0 0.0)
 end
  begin
     id 21 
     name lhand
     direction 1 -4.48978e-011 -2.82725e-026   
     length 0.523208   
     axis 1.80403e-014 90 90   XYZ
    dof rx rz
    limits (-90.0 90.0)
           (-45.0 45.0)
  end
  begin
     id 22 
     name lfingers
     direction 1 -4.48977e-011 -5.6545e-026   
     length 0.421824   
     axis 3.60806e-014 90 90   XYZ
    dof rx
    limits (0.0 90.0)
  end
  begin
     id 23
     name lthumb
     direction 0.707107 -6.34962e-011 0.707107   
     length 0.605657   
     axis -90 45 2.85299e-015   XYZ
    dof rx rz
    limits (-45.0 45.0)
           (-45.0 45.0)
  end
  begin
     id 24 
     name rclavicle
     direction -0.957247 0.24311 0.156766   
     length 3.12406  
     axis 0 0 0   XYZ 
    dof ry rz
    limits (-10.0 20.0)
           (-20.0 0.0)
  end
  begin
     id 25 
     name rhumerus
     direction -1 -4.48964e-011 -1.70632e-027  
     length 4.61969   
     axis 180 30 90   XYZ
    dof rx ry rz
    limits (-90.0 60.0)
           (-90.0 90.0)
           (-90.0 90.0)
  end
  begin
     id 26 
     name rradius
     direction -1 -4.48966e-011 -6.60395e-027   
     length 3.09382   
     axis 180 30 90   XYZ
    dof rx
    limits (-10.0 170.0)
  end
  begin
     id 27 
     name rwrist
     direction -1 -4.48963e-011 -1.41363e-026   
     length 1.54691   
     axis 1.07133e-014 -90 -90   XYZ
    dof ry
    limits (-180.0 0.0)
  end
  begin
     id 28
     name rhand
     direction -1 -4.49013e-011 -2.82725e-026   
     length 0.500896   
     axis 1.80403e-014 -90 -90   XYZ
    dof rx rz
    limits (-90.0 90.0)
           (-45.0 45.0)
  end
  begin
     id 29
     name rfingers
     direction -1 -4.48902e-011 -5.6545e-026   
     length 0.403835   
     axis 3.60806e-014 -90 -90   XYZ
    dof rx
    limits (0.0 90.0)
  end
  begin
     id 30
     name rthumb
     direction -0.707107 -6.34953e-011 0.707107   
     length 0.579829   
     axis -90 -45 -2.85299e-015   XYZ
    dof rx rz
    limits (-45.0 45.0)
           (-45.0 45.0)
  end
:hierarchy
  begin
    root lhipjoint rhipjoint lowerback
    lhipjoint lfemur
    lfemur ltibia
    ltibia lfoot
    lfoot ltoes
    rhipjoint rfemur
    rfemur rtibia
    rtibia rfoot
    rfoot rtoes
    lowerback upperback
    upperback thorax
    thorax lowerneck lclavicle rclavicle
    lowerneck upperneck
    upperneck head
    lclavicle lhumerus
    lhumerus lradius
    lradius lwrist
    lwrist lhand lthumb
    lhand lfingers
    rclavicle rhumerus
    rhumerus rradius
    rradius rwrist
    rwrist rhand rthumb
    rhand rfingers
  end

#!OML:ASF E:\madness\Project 1\Capture day 1\Session 1\Female1.ASF
:FULLY-SPECIFIED
:DEGREES
981
root 23.4978 14.4577 -2.93084 552.865 -55.6077 -536.327
lowerback 29.1208 2.52079 0.615832
upperback 7.75304 2.32278 -0.0989536
thorax -7.28714 0.666032 -1.20354
lowerneck 0.0884154 12.8 4.23635
upperneck 1.00279 17.3952 -13.3191
head 1.84573 8.65343 -4.14138
rclavicle 1.48095e-014 -6.70401e-014
rhumerus 60.1598 -50.5814 -39.2177
rradius 148.366
rwrist -26.2128
rhand -28.9368 -49.6049
rfingers 7.12502
rthumb -2.29069 -79.5723
lclavicle 1.48095e-014 -6.70401e-014
lhumerus 19.6132 16.2866 29.7178
lradius 151.101
lwrist -18.8758
lhand -47.0478 -433.964
lfingers 7.12502
lthumb -19.7533 -44.9473
rfemur -60.4004 -5.60178 14.169
rtibia 73.43
rfoot -17.9806 -13.6176
rtoes 2.85224
lfemur -51.7088 -4.02842 -13.1
ltibia 63.9458
lfoot -25.5162 11.4543
ltoes -7.77268
982
root 23.5748 14.4588 -2.83958 552.743 -55.628 -536.192
lowerback 29.1091 2.47489 0.7056
upperback 7.69737 2.29466 -0.144139
thorax -7.33867 0.654777 -1.29679
lowerneck -0.388745 12.546 3.48145
upperneck 1.93678 17.0594 -11.2719
head 2.11967 8.46447 -3.77486
rclavicle -4.57702e-014 -2.80286e-014
rhumerus 59.983 -50.6957 -38.9982
rradius 148.289
rwrist -26.4314
rhand -29.0877 -50.0269
rfingers 7.12502
rthumb -2.43643 -79.9927
lclavicle -4.57702e-014 -2.80286e-014
lhumerus 20.0713 16.3925 29.4203
lradius 151.02
lwrist -18.902
lhand -47.1026 -433.697
lfingers 7.12502
lthumb -19.8059 -44.6859
rfemur -59.9153 -6.08769 15.2996
rtibia 75.0637
rfoot -18.4275 -13.4483
rtoes 3.65632
lfemur -52.1577 -4.1647 -12.9776
ltibia 63.7816
lfoot -25.5744 10.639
ltoes -6.72267
983
root 23.6567 14.4644 -2.75711 552.775 -55.542 -536.353
lowerback 29.2638 2.54366 0.237923
upperback 7.6351 2.25685 -0.0899421
thorax -7.50794 0.639427 -0.959972
lowerneck -1.01435 12.3195 2.66222
upperneck 2.98022 16.7676 -9.66175
head 2.29798 8.2777 -3.05645
rclavicle -8.94531e-015 4.28381e-014
rhumerus 60.2675 -50.7401 -39.1257
rradius 148.146
rwrist -26.6933
rhand -29.3537 -50.2184
rfingers 7.12502
rthumb -2.69328 -80.1811
lclavicle -8.94531e-015 4.28381e-014
lhumerus 20.1644 16.5137 29.1293
lradius 150.949
lwrist -19.157
lhand -47.2999 -433.525
lfingers 7.12502
lthumb -19.9956 -44.534
rfemur -59.1918 -6.51275 16.2365
rtibia 76.543
rfoot -18.8754 -13.1288
rtoes 4.13384
lfemur -52.3591 -4.11617 -13.0878
ltibia 63.5935
lfoot -25.6165 10.144
ltoes -6.80019
984
root 23.7288 14.4553 -2.67882 553.294 -55.4416 -536.798
lowerback 29.0441 2.58143 -0.431395
upperback 7.50905 2.14441 -0.0589934
thorax -7.57625 0.602332 -0.499257
lowerneck -1.51887 12.0178 2.01605
upperneck 4.04374 16.3708 -8.28789
head 2.50794 8.04584 -2.47054
rclavicle 4.42047e-014 7.54139e-015
rhumerus 60.534 -50.3603 -39.1492
rradius 147.927
rwrist -26.4425
rhand -29.6919 -50.0111
rfingers 7.12502
rthumb -3.01992 -79.9694
lclavicle 4.42047e-014 7.54139e-015
lhumerus 20.1167 16.722 28.7578
lradius 150.984
lwrist -19.4169
lhand -47.5469 -433.158
lfingers 7.12502
lthumb -20.233 -44.1915
rfemur -58.7468 -7.05779 16.9543
rtibia 77.8821
rfoot -19.3252 -12.7162
rtoes 4.41641
lfemur -52.8466 -4.08237 -13.4299
ltibia 63.4196
lfoot -25.2537 10.3117
ltoes -7.92579
985
root 23.8113 14.4376 -2.59878 553.337 -55.8225 -536.491
lowerback 28.9251 2.39198 -0.373272
upperback 7.31745 1.96772 0.0439446
thorax -7.73721 0.532104 -0.358673
lowerneck -1.96495 11.7633 1.53533
upperneck 4.97733 16.0298 -7.17282
head 2.72088 7.85056 -2.0055
rclavicle -3.30728e-014 9.23075e-014
rhumerus 60.4524 -50.2002 -39.0055
rradius 147.898
rwrist -26.3031
rhand -29.8027 -49.7752
rfingers 7.12502
rthumb -3.1269 -79.7321
lclavicle -3.30728e-014 9.23075e-014
lhumerus 20.263 16.9705 28.4235
lradius 151.125
lwrist -19.1944
lhand -47.5575 -432.796
lfingers 7.12502
lthumb -20.2431 -43.8312
rfemur -58.4826 -7.70139 18.2287
rtibia 79.0537
rfoot -19.8286 -12.5791
rtoes 4.6436
lfemur -53.8042 -4.27632 -13.1323
ltibia 63.2941
lfoot -24.7257 10.0517
ltoes -8.22328
986
root 23.8456 14.4525 -2.52992 553.271 -55.3297 -537.079
lowerback 28.8293 2.58081 -0.746218
upperback 7.59884 2.03629 -0.187698
thorax -7.37951 0.551842 -0.417546
lowerneck -2.51828 11.5694 1.15061
upperneck 5.58696 15.762 -6.26511
head 2.88539 7.7023 -1.62324
rclavicle -5.68276e-014 5.38955e-014
rhumerus 60.6289 -50.5452 -39.2788
rradius 148.024
rwrist -26.72
rhand -29.3979 -50.0134
rfingers 7.12502
rthumb -2.73594 -79.9756
lclavicle -5.68276e-014 5.38955e-014
lhumerus 20.5412 17.3733 28.2508
lradius 151.429
lwrist -18.3791
lhand -47.4278 -432.756
lfingers 7.12502
lthumb -20.1185 -43.7781
rfemur -56.958 -8.03918 18.5128
rtibia 79.8935
rfoot -20.3497 -12.0574
rtoes 4.0921
lfemur -53.2104 -4.46824 -13.666
ltibia 63.0737
lfoot -24.5737 10.2478
ltoes -8.07704
987
root 23.9115 14.4422 -2.46061 553.39 -55.2335 -537.259
lowerback 28.6178 2.72335 -0.924854
upperback 7.65658 2.15838 -0.294031
thorax -7.21552 0.61103 -0.468224
lowerneck -2.9376 11.2719 1.2113
upperneck 6.00835 15.3553 -5.83892
head 3.0513 7.492 -1.48143
rclavicle 8.11787e-014 -6.85559e-014
rhumerus 60.721 -51.067 -39.3457
rradius 148.056
rwrist -27.1597
rhand -28.9107 -50.5247
rfingers 7.12502
rthumb -2.26548 -80.4924
lclavicle 8.11787e-014 -6.85559e-014
lhumerus 21.1153 17.7345 28.1917
lradius 151.802
lwrist -17.3726
lhand -47.2518 -432.684
lfingers 7.12502
lthumb -19.9494 -43.6878
rfemur -56.1709 -8.44201 19.2206
rtibia 80.6539
rfoot -20.8424 -11.8364
rtoes 4.40474
lfemur -53.5254 -4.60925 -13.7744
ltibia 62.9428
lfoot -24.4467 10.1042
ltoes -9.0432
988
root 23.9695 14.4414 -2.39364 553.407 -55.0783 -537.36
lowerback 28.3945 2.73011 -1.33775
upperback 7.62166 2.08152 -0.145277
thorax -7.16929 0.581792 -0.0356535
lowerneck -2.78144 11.1648 0.720297
upperneck 6.20278 15.2247 -5.68296
head 3.02458 7.41545 -1.36869
rclavicle -6.70898e-015 -6.15239e-014
rhumerus 61.4013 -50.8599 -39.6271
rradius 148.064
rwrist -27.6047
rhand -29.282 -50.6576
rfingers 7.12502
rthumb -2.62409 -80.6212
lclavicle -6.70898e-015 -6.15239e-014
lhumerus 20.7741 18.1669 27.8243
lradius 151.942
lwrist -17.1257
lhand -47.2962 -432.406
lfingers 7.12502
lthumb -19.992 -43.4147
rfemur -55.2252 -8.73715 19.8432
rtibia 81.1883
rfoot -21.3054 -11.7762
rtoes 4.82932
lfemur -53.7322 -4.87128 -13.8055
ltibia 62.7703
lfoot -24.4238 9.65877
ltoes -8.41585
989
root 24.0346 14.4336 -2.3208 553.866 -55.273 -537.593
lowerback 27.9351 2.57529 -1.44625
upperback 7.55176 1.89332 -0.137823
thorax -7.0273 0.505383 0.105761
lowerneck -2.7558 10.9585 0.544542
upperneck 6.23745 14.9506 -5.61735
head 2.99973 7.2751 -1.33524
rclavicle -9.44227e-015 1.09332e-014
rhumerus 61.8475 -51.0406 -39.861
rradius 148.164
rwrist -28.3162
rhand -29.3947 -50.597
rfingers 7.12502
rthumb -2.73286 -80.5593
lclavicle -9.44227e-015 1.09332e-014
lhumerus 20.8405 18.5726 27.4675
lradius 151.77
lwrist -17.239
lhand -47.5532 -432.226
lfingers 7.12502
lthumb -20.2391 -43.26
rfemur -54.7047 -9.20184 20.3964
rtibia 81.6544
rfoot -21.7191 -11.9452
rtoes 5.76737
lfemur -54.4897 -5.48045 -13.7638
ltibia 62.6592
lfoot -24.3462 9.22662
ltoes -6.66586
